<?xml version="1.0" standalone="no"?><!DOCTYPE svg PUBLIC "-//W3C//DTD SVG 1.1//EN" "http://www.w3.org/Graphics/SVG/1.1/DTD/svg11.dtd"><svg t="1546562732101" class="icon" style="" viewBox="0 0 1024 1024" version="1.1" xmlns="http://www.w3.org/2000/svg" p-id="3830" xmlns:xlink="http://www.w3.org/1999/xlink" width="200" height="200"><defs><style type="text/css"></style></defs><path d="M916.968714 199.898053v492.51568l-4.010436 18.089626c-67.2388 143.949056-260.849001 289.263367-393.534705 312.814014h-14.847146c-132.685704-23.465317-326.295905-168.950285-393.534705-312.814014l-4.010436-18.089626V199.898053a42.664213 42.664213 0 0 1 42.664213-42.664214c107.343161 0 275.952133-69.627996 328.002473-139.93862a42.664213 42.664213 0 0 1 68.604056 0c52.05034 70.310624 220.659312 139.93862 328.002473 139.93862a42.664213 42.664213 0 0 1 42.664213 42.664214zM512 105.012842c-76.198285 68.092085-210.419901 122.958263-319.640287 135.0749v442.513222C250.041729 795.917115 408.496618 915.206256 512 937.818289 615.503382 915.206256 773.958271 795.917115 831.640287 682.686292V240.087742C722.419901 227.885777 588.198285 173.104926 512 105.012842z" p-id="3831"></path><path d="M682.656854 854.19643V853.343146a170.656854 170.656854 0 1 0-341.313708 0.853284 692.525513 692.525513 0 0 1-85.328427-72.10252C288.098208 675.433376 390.577648 597.357865 512 597.357865s223.901792 78.075511 255.985281 184.736045c-25.939842 25.939842-55.122164 50.4291-85.328427 72.10252zM512 597.357865c-98.127691 0-177.653785-76.368942-177.653785-170.656854S413.872309 256.044157 512 256.044157s177.653785 76.368942 177.653785 170.656854S610.127691 597.357865 512 597.357865z m0-85.328427c49.063845 0 88.741564-38.227135 88.741564-85.328427S561.149174 341.372584 512 341.372584s-88.741564 38.227135-88.741564 85.328427S462.850826 512.029438 512 512.029438z" p-id="3832"></path></svg>