<?xml version="1.0" standalone="no"?><!DOCTYPE svg PUBLIC "-//W3C//DTD SVG 1.1//EN" "http://www.w3.org/Graphics/SVG/1.1/DTD/svg11.dtd"><svg t="1546565110426" class="icon" style="" viewBox="0 0 1026 1024" version="1.1" xmlns="http://www.w3.org/2000/svg" p-id="14385" xmlns:xlink="http://www.w3.org/1999/xlink" width="200.390625" height="200"><defs><style type="text/css"></style></defs><path d="M511.971836 0C229.348061 0 0 229.348061 0 511.971836c0 282.657572 229.348061 512.016899 511.971836 512.016898S1023.943671 794.629408 1023.943671 511.971836C1023.943671 229.348061 794.584345 0 511.971836 0z m0.439364 852.828252a87.827757 87.827757 0 0 1-88.019275-88.008009c0-48.769415 39.283657-88.526234 88.019275-88.526233 48.769415 0 88.537499 39.756818 88.537499 88.526233s-39.768084 88.008009-88.537499 88.008009z m61.860212-291.174476c0 43.77869-47.394994 79.457308-61.860212 79.457308-13.980791 0-70.410914-35.678618-70.410914-79.457308l-29.809164-335.460124c0-41.998702 52.813818-76.753529 95.725045-79.006678 43.339326 2.253149 96.153144 42.438066 96.153144 84.876132l-29.797899 329.59067z" p-id="14386"></path></svg>