<?xml version="1.0" standalone="no"?><!DOCTYPE svg PUBLIC "-//W3C//DTD SVG 1.1//EN" "http://www.w3.org/Graphics/SVG/1.1/DTD/svg11.dtd"><svg t="1546564893627" class="icon" style="" viewBox="0 0 1024 1024" version="1.1" xmlns="http://www.w3.org/2000/svg" p-id="9766" xmlns:xlink="http://www.w3.org/1999/xlink" width="200" height="200"><defs><style type="text/css"></style></defs><path d="M512.911 30.85C249.006 30.85 35.1 246.188 35.1 511.721c0 265.606 213.906 480.871 477.811 480.871 263.916 0 477.811-215.266 477.811-480.871C990.723 246.188 776.827 30.85 512.911 30.85zM524.371 792.562c-38.133 0-69.07-31.135-69.07-69.575 0-38.355 30.938-69.455 69.07-69.455 38.13 0 69.07 31.1 69.07 69.455C593.442 761.362 562.501 792.562 524.371 792.562zM616.417 495.176c-30.85 28.655-33.635 57.825-33.985 60.315-3.89 31.585-25.6 47.335-55.015 48.15-27.83 0.78-50.87-20.62-54.89-47.455-1.837-24.14-1.757-68.065 41.17-102.743 14.825-12.005 34.53-33.818 34.53-48.1 0.09-30.633-19.535-50.988-42.908-51.845-27.493-1.035-44.425 22.07-49.043 42.123l0 0.553c0 0-7.143 51.548-52.37 52.54-28.82 0.64-52.195-23.54-52.24-52.54 0-97.71 86.315-157.598 159.805-157.598 69.385 0 155.605 56.535 157.535 145.813C669.902 426.209 661.917 452.969 616.417 495.176z" p-id="9767"></path></svg>